<svg width="94" height="94" viewBox="0 0 94 94" fill="none" xmlns="http://www.w3.org/2000/svg">
<path d="M89.3683 20.6984H77.4766V15.8963C77.477 15.6528 77.4082 15.4142 77.2782 15.2084C77.1481 15.0026 76.9622 14.838 76.7422 14.7338L71.8586 12.4344C71.852 12.4344 71.8446 12.43 71.8373 12.4264C71.7917 12.4075 71.7451 12.3911 71.6978 12.3772C71.6625 12.3661 71.6243 12.3522 71.592 12.3441C71.5597 12.336 71.5186 12.3331 71.4775 12.328C71.4288 12.3206 71.3798 12.316 71.3306 12.314C71.3225 12.314 71.3152 12.314 71.3078 12.314H63.4742C63.1334 12.314 62.8065 12.4494 62.5655 12.6904C62.3245 12.9314 62.1891 13.2583 62.1891 13.5992V14.9519H59.2296V10.9003C59.2296 10.5595 59.0942 10.2326 58.8531 9.99159C58.6121 9.75057 58.2852 9.61517 57.9444 9.61517H20.271C16.9907 9.61517 13.8447 10.9183 11.5252 13.2378C9.20571 15.5573 7.90262 18.7032 7.90262 21.9835C7.90262 25.2638 9.20571 28.4097 11.5252 30.7293C13.8447 33.0488 16.9907 34.3519 20.271 34.3519H27.2997L8.825 66.353H4.63171C4.46292 66.3529 4.29576 66.3861 4.13979 66.4506C3.98383 66.5152 3.84211 66.6098 3.72276 66.7292C3.6034 66.8485 3.50874 66.9902 3.44419 67.1462C3.37964 67.3022 3.34646 67.4693 3.34656 67.6381V83.0997C3.34646 83.2685 3.37964 83.4356 3.44419 83.5916C3.50874 83.7476 3.6034 83.8893 3.72276 84.0086C3.84211 84.128 3.98383 84.2226 4.13979 84.2872C4.29576 84.3517 4.46292 84.3849 4.63171 84.3848H49.2678C49.6086 84.3848 49.9355 84.2494 50.1765 84.0084C50.4175 83.7674 50.5529 83.4405 50.5529 83.0997V75.3689C50.5529 75.1999 50.5196 75.0325 50.4548 74.8764C50.39 74.7202 50.2951 74.5784 50.1754 74.459L42.4226 66.7275C42.1816 66.4874 41.8552 66.3527 41.515 66.353H25.85L37.1175 46.8392C39.4918 42.7267 44.2556 43.7482 44.4517 43.7915C44.7203 43.8549 45.0022 43.8299 45.2555 43.7202C45.5088 43.6105 45.7198 43.422 45.8573 43.1827L50.9546 34.3526H57.9422C58.283 34.3526 58.6099 34.2172 58.8509 33.9762C59.0919 33.7352 59.2274 33.4083 59.2274 33.0674V29.0166H62.1869V30.3701C62.1869 30.7109 62.3223 31.0378 62.5633 31.2788C62.8043 31.5198 63.1312 31.6552 63.472 31.6552H71.3078C71.4815 31.6554 71.6534 31.6202 71.8131 31.5517L76.6864 29.5145C76.9204 29.4171 77.1203 29.2525 77.2608 29.0416C77.4013 28.8306 77.4761 28.5827 77.4758 28.3292V23.2687H89.3668C89.7077 23.2687 90.0346 23.1333 90.2756 22.8923C90.5166 22.6512 90.652 22.3244 90.652 21.9835C90.652 21.6427 90.5166 21.3158 90.2756 21.0748C90.0346 20.8338 89.7077 20.6984 89.3668 20.6984H89.3683ZM10.4744 21.9835C10.4775 19.3859 11.5108 16.8955 13.3476 15.0587C15.1844 13.2219 17.6748 12.1886 20.2724 12.1855H28.2419V31.7815H20.2724C17.6748 31.7784 15.1844 30.7451 13.3476 28.9083C11.5108 27.0715 10.4775 24.5812 10.4744 21.9835V21.9835ZM25.7494 42.1788H27.5016C27.7571 42.179 28.008 42.2463 28.2292 42.3741C28.4504 42.5019 28.6341 42.6856 28.7618 42.9068C28.8896 43.128 28.9569 43.3789 28.957 43.6344C28.9571 43.8898 28.8901 44.1408 28.7625 44.3621L21.092 57.6484C20.9637 57.8691 20.7799 58.0524 20.5588 58.1799C20.3377 58.3075 20.0871 58.3749 19.8318 58.3755H16.3986L25.7494 42.1788ZM47.9833 75.8999V81.8123H5.91687V68.9233H40.984L47.9833 75.8999ZM11.7941 66.353L14.9152 60.9465H19.8355C20.5418 60.9452 21.2353 60.7587 21.847 60.4056C22.4587 60.0525 22.9671 59.5452 23.3216 58.9343L30.9906 45.6495C31.3438 45.0374 31.5296 44.3432 31.5295 43.6366C31.5293 42.93 31.3433 42.2358 30.9899 41.6239C30.6366 41.0119 30.1284 40.5037 29.5165 40.1504C28.9046 39.797 28.2104 39.6109 27.5038 39.6107H27.2358L30.2717 34.3519H41.3607L22.8831 66.353H11.7941ZM44.0757 41.125C42.7855 40.9944 41.4823 41.1024 40.2313 41.4437L44.3276 34.3489H47.9877L44.0757 41.125ZM56.6592 31.7815H30.8092V12.1855H56.6592V31.7815ZM59.2296 26.4463V17.52H62.1891V26.4463H59.2296ZM64.7594 14.8821H70.0241V29.0812H64.7594V14.8821ZM74.9063 27.4737L72.5937 28.4409V15.6224L74.9063 16.7114V27.4737Z" fill="white"/>
<path d="M25.2016 20.6984H20.6183C20.2775 20.6984 19.9506 20.8338 19.7096 21.0748C19.4686 21.3158 19.3332 21.6427 19.3332 21.9835C19.3332 22.3244 19.4686 22.6513 19.7096 22.8923C19.9506 23.1333 20.2775 23.2687 20.6183 23.2687H25.2016C25.5424 23.2687 25.8693 23.1333 26.1103 22.8923C26.3513 22.6513 26.4867 22.3244 26.4867 21.9835C26.4867 21.6427 26.3513 21.3158 26.1103 21.0748C25.8693 20.8338 25.5424 20.6984 25.2016 20.6984V20.6984Z" fill="white"/>
<path d="M20.6183 18.0759H25.2016C25.5424 18.0759 25.8693 17.9405 26.1103 17.6995C26.3513 17.4585 26.4867 17.1316 26.4867 16.7908C26.4867 16.4499 26.3513 16.123 26.1103 15.882C25.8693 15.641 25.5424 15.5056 25.2016 15.5056H20.6183C20.2775 15.5056 19.9506 15.641 19.7096 15.882C19.4686 16.123 19.3332 16.4499 19.3332 16.7908C19.3332 17.1316 19.4686 17.4585 19.7096 17.6995C19.9506 17.9405 20.2775 18.0759 20.6183 18.0759V18.0759Z" fill="white"/>
<path d="M25.2016 25.8904H20.6183C20.2775 25.8904 19.9506 26.0258 19.7096 26.2668C19.4686 26.5078 19.3332 26.8347 19.3332 27.1756C19.3332 27.5164 19.4686 27.8433 19.7096 28.0843C19.9506 28.3253 20.2775 28.4607 20.6183 28.4607H25.2016C25.5424 28.4607 25.8693 28.3253 26.1103 28.0843C26.3513 27.8433 26.4867 27.5164 26.4867 27.1756C26.4867 26.8347 26.3513 26.5078 26.1103 26.2668C25.8693 26.0258 25.5424 25.8904 25.2016 25.8904V25.8904Z" fill="white"/>
<path d="M34.9563 79.2699H39.8384C40.1792 79.2699 40.5061 79.1345 40.7471 78.8935C40.9881 78.6525 41.1236 78.3256 41.1236 77.9847C41.1236 77.6439 40.9881 77.317 40.7471 77.076C40.5061 76.835 40.1792 76.6996 39.8384 76.6996H34.9563C34.6154 76.6996 34.2885 76.835 34.0475 77.076C33.8065 77.317 33.6711 77.6439 33.6711 77.9847C33.6711 78.3256 33.8065 78.6525 34.0475 78.8935C34.2885 79.1345 34.6154 79.2699 34.9563 79.2699V79.2699Z" fill="white"/>
</svg>
