<svg width="57" height="40" viewBox="0 0 57 40" fill="none" xmlns="http://www.w3.org/2000/svg">
<path d="M53.5125 0H2.95638C1.33055 0 0 1.47878 0 2.94109C0 4.4034 1.33055 5.881 2.95638 5.881H3.67048V11.7632H52.8702V5.881H53.5125C55.1396 5.881 56.4689 4.4034 56.4689 2.94109C56.4689 1.47878 55.1396 0 53.5125 0V0ZM28.2345 8.8468C27.418 8.8468 26.7569 8.16564 26.7569 7.32684C26.7569 6.48805 27.418 5.80689 28.2345 5.80689C29.0521 5.80689 29.7121 6.48805 29.7121 7.32684C29.7121 8.16564 29.0521 8.8468 28.2345 8.8468ZM3.67048 23.5264H52.8702V14.1172H3.67048V23.5264ZM28.2345 17.2042C29.0521 17.2042 29.7121 17.8842 29.7121 18.723C29.7121 19.563 29.0521 20.2429 28.2345 20.2429C27.418 20.2429 26.7569 19.563 26.7569 18.723C26.7557 17.8842 27.418 17.2042 28.2345 17.2042ZM3.67048 31.6402V38.48C3.67048 39.3153 3.77518 40 4.5881 40H10.4985C11.3114 40 11.6797 39.3153 11.6797 38.48V34.1155H44.861V38.48C44.861 39.3153 45.1575 40 45.9692 40H51.8808C52.6914 40 52.869 39.3153 52.869 38.48V25.8816H3.67048V31.6402V31.6402ZM28.2345 28.6015C29.0521 28.6015 29.7121 29.2827 29.7121 30.1203C29.7121 30.9614 29.0521 31.6391 28.2345 31.6391C27.418 31.6391 26.7569 30.9614 26.7569 30.1203C26.7557 29.2838 27.418 28.6015 28.2345 28.6015Z" fill="white"/>
</svg>
