<svg width="95" height="70" viewBox="0 0 95 70" fill="none" xmlns="http://www.w3.org/2000/svg">
<path d="M34.8627 15.4736C24.0201 15.4736 15.199 24.2947 15.199 35.1373C15.199 45.9799 24.0201 54.801 34.8627 54.801C45.7053 54.801 54.5264 45.9799 54.5264 35.1373C54.5264 24.2947 45.7055 15.4736 34.8627 15.4736ZM34.8627 51.9512C25.5915 51.9512 18.0488 44.4085 18.0488 35.1373C18.0488 25.8661 25.5915 18.3234 34.8627 18.3234C44.1339 18.3234 51.6766 25.8661 51.6766 35.1373C51.6766 44.4085 44.1341 51.9512 34.8627 51.9512Z" fill="white"/>
<path d="M92.6189 53.4711C91.832 53.4711 91.194 54.1091 91.194 54.896V62.5905H69.7254V35.8921C69.7254 31.3983 68.8993 27.0168 67.3249 22.9289L68.6997 21.5541C70.0974 20.1564 70.404 17.9594 69.4454 16.2113C65.8177 9.59613 60.4038 4.18206 53.7887 0.554624C52.0406 -0.404053 49.8436 -0.0974123 48.4458 1.30033L47.1817 2.5645C43.4611 1.12383 39.4895 0.340509 35.4038 0.278573C25.8846 0.132093 16.9376 3.75895 10.211 10.4855C3.48453 17.212 -0.140237 26.1589 0.00415323 35.6782C0.144174 44.9103 3.95969 53.5629 10.7476 60.0422C17.4748 66.4636 26.3072 70 35.6177 70H65.2607C67.7225 70 69.7254 67.9972 69.7254 65.5353V65.4403H92.6189C93.4058 65.4403 94.0438 64.8023 94.0438 64.0154V54.896C94.0438 54.1091 93.4058 53.4711 92.6189 53.4711ZM50.4609 3.31533C50.9687 2.80769 51.7735 2.69958 52.4185 3.05334C58.5568 6.41935 63.5804 11.443 66.9466 17.5815C67.3002 18.2263 67.1925 19.0311 66.6846 19.5389L66.1044 20.1192C64.4937 16.8138 62.3674 13.7453 59.7678 11.0218C56.8881 8.00499 53.5784 5.57695 49.98 3.79619L50.4609 3.31533ZM66.8756 65.5353C66.8756 66.4258 66.1512 67.1502 65.2607 67.1502H35.6177C17.8151 67.1502 3.11729 53.0125 2.85359 35.6351C2.72097 26.8934 6.04956 18.6775 12.2262 12.5007C18.2846 6.44234 26.3039 3.12421 34.8577 3.12421C35.0249 3.12421 35.1931 3.12554 35.3605 3.12801C52.738 3.39171 66.8756 18.0897 66.8756 35.8921V65.5353Z" fill="white"/>
<path d="M43.5088 10.6798C44.6164 11.0714 45.7075 11.5437 46.7525 12.0838C46.9617 12.1919 47.1853 12.2432 47.4057 12.2432C47.9215 12.2432 48.4194 11.9622 48.6727 11.4723C49.034 10.7731 48.7603 9.9136 48.0611 9.55224C46.9009 8.95245 45.6889 8.4279 44.4589 7.99302C43.7167 7.73064 42.9029 8.11955 42.6406 8.86145C42.3782 9.60335 42.7669 10.4174 43.5088 10.6798Z" fill="white"/>
<path d="M52.4529 12.3527C51.8303 11.8714 50.9352 11.986 50.454 12.6084C49.9728 13.231 50.0871 14.1258 50.7097 14.6072C53.8077 17.0022 56.3636 20.1159 58.1006 23.6113C58.3497 24.1123 58.8537 24.4024 59.3777 24.4024C59.5907 24.4024 59.8071 24.3546 60.0108 24.2533C60.7154 23.903 61.0029 23.0478 60.6525 22.3432C58.7249 18.4642 55.8895 15.0096 52.4529 12.3527Z" fill="white"/>
<path d="M44.6841 27.8275C44.0028 28.2214 43.7697 29.093 44.1635 29.7743C45.1013 31.3966 45.597 33.2511 45.597 35.1375C45.597 41.0564 40.7815 45.8718 34.8627 45.8718C28.9438 45.8718 24.1284 41.0564 24.1284 35.1375C24.1284 29.2186 28.9438 24.4032 34.8627 24.4032C37.3302 24.4032 39.6498 25.2169 41.5706 26.7566C42.1848 27.2488 43.0815 27.1498 43.5736 26.536C44.0659 25.9219 43.9671 25.0252 43.353 24.5329C40.956 22.6116 37.9407 21.5534 34.8627 21.5534C27.3724 21.5534 21.2786 27.6472 21.2786 35.1375C21.2786 42.6277 27.3724 48.7216 34.8627 48.7216C42.3529 48.7216 48.4468 42.6277 48.4468 35.1375C48.4468 32.751 47.8189 30.4036 46.6307 28.3483C46.237 27.6664 45.3654 27.4337 44.6841 27.8275Z" fill="white"/>
</svg>
