<svg width="94" height="94" viewBox="0 0 94 94" fill="none" xmlns="http://www.w3.org/2000/svg">
<path d="M87.4196 42.4768L84.9854 32.7399C85.6509 32.5985 86.1503 32.0081 86.1503 31.3007V29.7308C86.1503 26.3222 83.3771 23.5492 79.9687 23.5492H68.8811V20.311C68.8811 18.6337 67.5166 17.2692 65.8393 17.2692H9.32142C7.64411 17.2692 6.27964 18.6337 6.27964 20.311V47C6.27964 47.8128 6.93856 48.4719 7.75151 48.4719C8.56428 48.4719 9.22338 47.8129 9.22338 47V20.311C9.22338 20.2568 9.26726 20.2129 9.32142 20.2129H65.8391C65.8933 20.2129 65.9371 20.2568 65.9371 20.311V47.0004C65.9371 47.8131 66.5961 48.4722 67.409 48.4722C68.2218 48.4722 68.8809 47.8133 68.8809 47.0004V45.3319H86.2432C86.2446 45.3319 86.2457 45.3322 86.247 45.3322C86.2485 45.3322 86.2498 45.332 86.2511 45.332C88.3875 45.3335 90.2016 46.7358 90.8247 48.6681H86.2481C85.4354 48.6681 84.7763 49.327 84.7763 50.14V53.2798C84.7763 55.8228 86.845 57.8915 89.3879 57.8915H91.0561V64.3674H87.2076C85.9434 60.717 82.4732 58.0876 78.3984 58.0876C74.3235 58.0876 70.8532 60.717 69.5892 64.3674H68.8805V53.2796C68.8805 52.4669 68.2216 51.8078 67.4086 51.8078C66.5959 51.8078 65.9368 52.4667 65.9368 53.2796V64.367H35.4C34.1358 60.7166 30.6657 58.0872 26.5908 58.0872C22.5159 58.0872 19.0456 60.7166 17.7816 64.367H9.32142C9.26726 64.367 9.22338 64.3232 9.22338 64.269V61.031H15.6012C16.414 61.031 17.0731 60.372 17.0731 59.5591C17.0731 58.7461 16.4142 58.0872 15.6012 58.0872H1.47187C0.659102 58.0872 0 58.7461 0 59.5591C0 60.372 0.658918 61.031 1.47187 61.031H6.27982V64.269C6.27982 65.9463 7.64429 67.3108 9.32161 67.3108H17.2719C17.2716 67.3435 17.2694 67.376 17.2694 67.4088C17.2694 72.5487 21.4511 76.7302 26.5908 76.7302C31.7305 76.7302 35.9122 72.5487 35.9122 67.4088C35.9122 67.3758 35.91 67.3435 35.9097 67.3108H69.0795C69.0792 67.3435 69.077 67.376 69.077 67.4088C69.077 72.5487 73.2587 76.7302 78.3984 76.7302C83.5381 76.7302 87.7198 72.5487 87.7198 67.4088C87.7198 67.3758 87.7176 67.3435 87.7172 67.3108H92.5279C93.3407 67.3108 93.9998 66.6519 93.9998 65.8389V50.1396C94 46.2636 91.1402 43.0432 87.4196 42.4768ZM68.8811 26.4928H79.9687C81.7541 26.4928 83.2067 27.9454 83.2067 29.7308V29.8288H68.8811V26.4928ZM68.8811 42.3883V32.7724H81.9594L84.3633 42.3883H68.8811ZM26.5908 73.787C23.0741 73.787 20.2129 70.9261 20.2129 67.4092C20.2129 63.8923 23.0741 61.0313 26.5908 61.0313C30.1075 61.0313 32.9687 63.8923 32.9687 67.4092C32.9687 70.9261 30.1075 73.787 26.5908 73.787ZM78.3988 73.787C74.882 73.787 72.0209 70.9261 72.0209 67.4092C72.0209 63.8923 74.882 61.0313 78.3988 61.0313C81.9155 61.0313 84.7766 63.8923 84.7766 67.4092C84.7766 70.9261 81.9155 73.787 78.3988 73.787ZM91.0564 54.9478H89.3883C88.4685 54.9478 87.7202 54.1994 87.7202 53.2796V51.6115H91.0563V54.9478H91.0564Z" fill="white"/>
<path d="M26.5908 64.3674C24.9135 64.3674 23.549 65.7319 23.549 67.4092C23.549 69.0865 24.9135 70.451 26.5908 70.451C28.2681 70.451 29.6326 69.0865 29.6326 67.4092C29.6326 65.7319 28.2681 64.3674 26.5908 64.3674Z" fill="white"/>
<path d="M78.3988 64.3674C76.7215 64.3674 75.357 65.7319 75.357 67.4092C75.357 69.0865 76.7215 70.451 78.3988 70.451C80.0761 70.451 81.4406 69.0865 81.4406 67.4092C81.4406 65.7319 80.0761 64.3674 78.3988 64.3674Z" fill="white"/>
<path d="M61.1294 58.0878H39.1503C38.3375 58.0878 37.6784 58.7467 37.6784 59.5596C37.6784 60.3726 38.3373 61.0315 39.1503 61.0315H61.1294C61.9421 61.0315 62.6012 60.3726 62.6012 59.5596C62.6012 58.7467 61.9423 58.0878 61.1294 58.0878Z" fill="white"/>
<path d="M23.451 51.808H4.6117C3.79893 51.808 3.13983 52.4669 3.13983 53.2798C3.13983 54.0928 3.79875 54.7517 4.6117 54.7517H23.451C24.2638 54.7517 24.9229 54.0928 24.9229 53.2798C24.9229 52.4669 24.2638 51.808 23.451 51.808Z" fill="white"/>
<path d="M51.1806 31.8296C50.606 31.255 49.6739 31.255 49.0992 31.8298L36.0104 44.9184L29.2015 38.1095C28.6267 37.5346 27.6947 37.5346 27.1201 38.1095C26.5453 38.6843 26.5453 39.616 27.1201 40.1909L34.9698 48.0406C35.2572 48.3281 35.6339 48.4717 36.0104 48.4717C36.387 48.4717 36.7639 48.3281 37.051 48.0406L51.1804 33.9112C51.7553 33.3362 51.7553 32.4045 51.1806 31.8296Z" fill="white"/>
</svg>
