<svg width="94" height="94" viewBox="0 0 94 94" fill="none" xmlns="http://www.w3.org/2000/svg">
<g clip-path="url(#clip0)">
<path d="M55.634 11.3053C54.6467 11.0676 53.6566 11.6744 53.419 12.6599C53.1814 13.6456 53.7878 14.6374 54.7735 14.8749C69.6541 18.4622 80.0468 31.6724 80.0468 46.9999C80.0468 65.2218 65.2222 80.0466 47 80.0466C28.7779 80.0466 13.9533 65.2218 13.9533 46.9999C13.9533 31.673 24.3454 18.4627 39.2252 14.8751C40.211 14.6374 40.8174 13.6456 40.5798 12.6601C40.342 11.6744 39.3499 11.0683 38.3647 11.3055C30.4923 13.2037 23.3599 17.7544 18.2815 24.1194C13.0478 30.679 10.2814 38.5909 10.2814 46.9999C10.2814 67.2465 26.7534 83.7185 47 83.7185C67.2467 83.7185 83.7186 67.2467 83.7186 46.9999C83.7186 38.5907 80.9523 30.6786 75.7182 24.1188C70.6397 17.754 63.5069 13.2033 55.634 11.3053V11.3053Z" fill="white"/>
<path d="M92.8933 42.584L90.7454 38.5768L91.1036 33.6227C91.448 30.4473 90.1814 27.3482 87.711 25.3272L84.1456 22.4077L82.7431 18.1829C81.9577 14.9526 79.5044 12.3562 76.3212 11.3947L71.9203 10.0651L68.5499 6.16928C66.5557 3.82351 63.5373 2.60335 60.4751 2.90426L55.9073 3.35939L51.4172 1.10688C48.6501 -0.368288 45.3509 -0.369573 42.5835 1.1067L38.5764 3.25437L33.6225 2.896C30.4458 2.55158 27.3478 3.81837 25.327 6.28861L22.4073 9.85399L18.1827 11.2565C14.9522 12.0419 12.3558 14.4952 11.3943 17.6782L10.0649 22.0791L6.16906 25.4497C3.82348 27.4439 2.60259 30.4618 2.90386 33.5245L3.35899 38.0922L1.10649 42.5824C-0.368868 45.3497 -0.369969 48.6487 1.10612 51.4163L3.25397 55.4234L2.8956 60.3775C2.55136 63.5529 3.81797 66.6518 6.28821 68.673L9.85359 71.5925L11.2561 75.8173C12.0413 79.0476 14.4946 81.644 17.678 82.6055L22.0787 83.9349L25.4493 87.8309C27.4436 90.1765 30.4608 91.3974 33.5241 91.0959L38.0917 90.6408L42.5814 92.8929C43.9655 93.631 45.4827 94.0002 47 94.0002C48.5161 94.0002 50.0322 93.6315 51.4156 92.8937L55.4228 90.746L60.3767 91.1044C63.552 91.4481 66.651 90.182 68.6724 87.7118L71.5919 84.1464L75.8169 82.7441C79.047 81.9587 81.6432 79.5053 82.6047 76.3222L83.9343 71.9215L87.8303 68.5509C90.1759 66.5567 91.3968 63.5388 91.0955 60.4759L90.6402 55.9085L92.8925 51.4183C94.3679 48.6509 94.3693 45.3517 92.8933 42.584V42.584ZM89.6446 49.7049C89.6365 49.7199 89.6286 49.735 89.6211 49.75L87.1194 54.7373C86.9636 55.048 86.8991 55.3966 86.9335 55.7427L87.4415 60.8374C87.6247 62.7003 86.881 64.5381 85.4399 65.7634L81.1295 69.4925C80.8666 69.72 80.6739 70.0172 80.5734 70.3499L79.0898 75.2601C78.4985 77.2179 76.8918 78.7232 74.8971 79.1883C74.8426 79.2009 74.7886 79.2162 74.7355 79.2338L69.9302 80.8287C69.6003 80.9383 69.3082 81.1391 69.088 81.4081L65.8311 85.3858C64.594 86.8979 62.6937 87.6701 60.7491 87.4512C60.7248 87.4485 60.7004 87.4463 60.6764 87.4444L55.1572 87.0453C54.8096 87.0203 54.4638 87.0942 54.1575 87.2583L49.6845 89.6556C47.9976 90.5552 45.9829 90.5516 44.2947 89.6452C44.2797 89.6373 44.2646 89.6294 44.2496 89.6219L39.2624 87.1202C39.0061 86.9917 38.7241 86.9252 38.4392 86.9252C38.3786 86.9252 38.3179 86.9282 38.2571 86.9342L33.1624 87.4419C31.2996 87.6258 29.4617 86.8814 28.2364 85.4405L24.5073 81.1301C24.28 80.8672 23.9825 80.6743 23.6497 80.5738L18.7395 79.0906C16.7815 78.4992 15.2764 76.8926 14.8113 74.8977C14.7987 74.8432 14.7834 74.7894 14.7658 74.7361L13.1709 69.9306C13.0615 69.6007 12.8607 69.3088 12.5917 69.0886L8.61415 65.8315C7.10208 64.5945 6.32989 62.6946 6.54873 60.7497C6.55149 60.7254 6.55369 60.7012 6.55553 60.6768L6.95466 55.1574C6.97981 54.8108 6.90582 54.4642 6.74169 54.1577L4.34415 49.685C3.44454 47.9982 3.4484 45.9834 4.35443 44.2953C4.36251 44.2804 4.37022 44.2654 4.37775 44.2503L6.87938 39.263C7.03525 38.9524 7.0997 38.6037 7.06518 38.2579L6.55755 33.1628C6.37432 31.2999 7.11806 29.4621 8.55908 28.2368L12.8695 24.5077C13.1324 24.2802 13.3252 23.9829 13.4258 23.6503L14.9092 18.7399C15.5005 16.7821 17.1072 15.277 19.1021 14.8117C19.1566 14.7991 19.2104 14.7838 19.2637 14.7662L24.0688 13.1711C24.3987 13.0617 24.6907 12.8609 24.9108 12.5919L28.1681 8.61418C29.4051 7.1023 31.3055 6.33047 33.2499 6.54895C33.2742 6.5517 33.2984 6.5539 33.3227 6.55574L38.8418 6.95487C39.1875 6.97947 39.5351 6.90604 39.8415 6.7419L44.3144 4.34455C46.001 3.44494 48.016 3.44861 49.7039 4.35483C49.7188 4.36272 49.7338 4.37062 49.7491 4.37814L54.7364 6.87978C55.047 7.03565 55.3957 7.10028 55.7416 7.06558L60.8365 6.55794C62.6992 6.37435 64.5371 7.11845 65.7624 8.55947L69.4916 12.8699C69.7189 13.1328 70.0163 13.3255 70.3491 13.4262L75.2593 14.9096C77.2172 15.5009 78.7223 17.1077 79.1875 19.1025C79.2002 19.157 79.2154 19.2108 79.233 19.2641L80.8281 24.0692C80.9377 24.3991 81.1383 24.6911 81.4073 24.9112L85.385 28.1683C86.8971 29.4054 87.6691 31.305 87.4503 33.2502C87.4475 33.2744 87.4453 33.2986 87.4437 33.3231L87.0445 38.8424C87.0194 39.189 87.0934 39.5357 87.2573 39.8421L89.6549 44.315C90.5546 46.0022 90.5508 48.0169 89.6446 49.7049V49.7049Z" fill="white"/>
<path d="M39.0324 36.997C38.7379 36.3765 38.1072 35.9463 37.3747 35.9463H27.6742C26.6602 35.9463 25.8383 36.7682 25.8383 37.7822V65.572C25.8383 66.5859 26.6602 67.4079 27.6742 67.4079H37.3747C38.1357 67.4079 38.7884 66.9451 39.0667 66.2854C40.4662 66.4819 41.908 66.8799 43.409 67.2955C45.6657 67.9203 47.999 68.5664 50.4234 68.5664H61.022C64.2984 68.5664 66.9534 66.8294 68.1241 63.9196C68.6944 62.5019 68.7942 61.0306 68.461 59.7989C69.0705 59.2509 69.5857 58.5686 69.9753 57.772C70.7649 56.1579 70.9226 54.3427 70.475 52.8139C71.3093 52.0079 71.9317 50.9436 72.257 49.6888C72.5612 48.5156 72.5559 47.3581 72.2853 46.3551C73.9413 45.381 75.0566 43.6111 75.0566 41.6169C75.0566 40.0529 74.4476 38.6117 73.3417 37.559C72.2798 36.5481 70.8654 35.9913 69.3592 35.9913L54.42 35.9916C53.285 34.5679 52.9318 32.6357 53.5781 31.0805C54.9043 27.8886 54.8221 25.1866 53.312 22.32C52.191 20.1924 49.1768 18.0741 46.6434 18.4357C45.112 18.6546 44.004 19.7369 43.6791 21.3312C43.5834 21.8003 43.5572 22.307 43.5269 22.8938C43.452 24.3412 43.3492 26.3236 42.0996 28.7175C41.2527 30.3403 40.9702 32.0093 40.7209 33.4819C40.3638 35.5914 40.1906 36.6076 39.0324 36.997V36.997ZM29.5101 39.6182H35.5388V63.736H29.5101V39.6182ZM44.3413 34.0948C44.5552 32.8315 44.7762 31.525 45.3549 30.4167C46.9748 27.3132 47.1119 24.6656 47.194 23.0838C47.2158 22.6624 47.2364 22.2644 47.2771 22.0643C47.2773 22.063 47.2777 22.0615 47.2781 22.0602C47.9149 22.0691 49.4823 22.9288 50.0634 24.0318C51.0691 25.9405 51.1025 27.4693 50.1875 29.672C49.3622 31.6581 49.4243 33.9628 50.2405 36.0118C49.3473 36.1361 48.6592 36.9008 48.6592 37.8281C48.6592 38.8419 49.4814 39.6641 50.4952 39.6641L69.3592 39.6635C69.9186 39.6635 70.4339 39.8607 70.8099 40.2187C71.0723 40.4682 71.3847 40.9136 71.3847 41.6171C71.3847 42.6019 70.482 43.4534 69.4133 43.4767L64.6878 43.5795C63.6742 43.6016 62.8702 44.4411 62.8923 45.4549C62.9141 46.4552 63.7315 47.251 64.7271 47.251C64.7405 47.251 64.7541 47.251 64.7679 47.2507L68.7034 47.1651C68.8317 47.5288 68.8985 48.2226 68.6283 49.0174C68.3982 49.6934 67.7808 50.8272 66.2276 50.8272C65.2138 50.8272 64.3917 51.6492 64.3917 52.6632C64.3917 53.6772 65.2138 54.4991 66.2276 54.4991C66.5059 54.4991 66.7791 54.4818 67.0464 54.4479C67.0692 54.9674 66.9623 55.5761 66.6772 56.1588C66.3402 56.8476 65.6739 57.669 64.4141 57.669C63.4003 57.669 62.5781 58.491 62.5781 59.505C62.5781 60.5189 63.4003 61.3409 64.4141 61.3409C64.6041 61.3409 64.7921 61.3324 64.9777 61.3157C64.9729 61.668 64.9013 62.1085 64.701 62.5902C64.4132 63.2831 63.4781 64.8945 61.0224 64.8945H50.4237C48.4984 64.8945 46.5024 64.3419 44.3892 63.7568C42.7077 63.2912 40.9836 62.8142 39.211 62.6012V40.7127C43.3444 39.9637 43.9143 36.6175 44.3413 34.0948V34.0948Z" fill="white"/>
<path d="M47.0004 13.9533C48.0144 13.9533 48.8363 13.1314 48.8363 12.1174C48.8363 11.1034 48.0144 10.2814 47.0004 10.2814H46.9991C45.9851 10.2814 45.1639 11.1034 45.1639 12.1174C45.1639 13.1314 45.9864 13.9533 47.0004 13.9533Z" fill="white"/>
</g>
<defs>
<clipPath id="clip0">
<rect width="94" height="94" fill="white"/>
</clipPath>
</defs>
</svg>
